HIERARCHY
ROOT root
{
  OFFSET 0 93.2929 0
  CHANNELS 6 Xposition Yposition Zposition Zrotation Xrotation Yrotation
  JOINT torso_1
  {
    OFFSET 0 5.07867 -1.15138
    CHANNELS 6 Xposition Yposition Zposition Zrotation Xrotation Yrotation
    JOINT torso_2
    {
      OFFSET 0 5.61661 1.07143
      CHANNELS 6 Xposition Yposition Zposition Zrotation Xrotation Yrotation
      JOINT torso_3
      {
        OFFSET -1.02604e-17 5.98978 0.11501
        CHANNELS 6 Xposition Yposition Zposition Zrotation Xrotation Yrotation
        JOINT torso_4
        {
          OFFSET -1.10457e-17 6.50583 -0.443523
          CHANNELS 6 Xposition Yposition Zposition Zrotation Xrotation Yrotation
          JOINT torso_5
          {
            OFFSET -1.97295e-17 7.60548 -1.50593
            CHANNELS 6 Xposition Yposition Zposition Zrotation Xrotation Yrotation
            JOINT torso_6
            {
              OFFSET -2.53307e-17 9.49737 -0.914492
              CHANNELS 6 Xposition Yposition Zposition Zrotation Xrotation Yrotation
              JOINT torso_7
              {
                OFFSET -2.90401e-17 10.5513 1.57691
                CHANNELS 6 Xposition Yposition Zposition Zrotation Xrotation Yrotation
                JOINT neck_1
                {
                  OFFSET -1.29193e-17 4.78644 0.715339
                  CHANNELS 6 Xposition Yposition Zposition Zrotation Xrotation Yrotation
                  JOINT neck_2
                  {
                    OFFSET -1.8116e-17 4.82109 0.421791
                    CHANNELS 6 Xposition Yposition Zposition Zrotation Xrotation Yrotation
                    JOINT head
                    {
                      OFFSET -2.00958e-17 4.83041 0.765062
                      CHANNELS 6 Xposition Yposition Zposition Zrotation Xrotation Yrotation
                      End Site
                      {
                        OFFSET 0 0.1 0
                      }
                    }
                  }
                }
                JOINT l_shoulder
                {
                  OFFSET 1.23299 -7.60731 7.53374
                  CHANNELS 6 Xposition Yposition Zposition Zrotation Xrotation Yrotation
                  JOINT l_up_arm
                  {
                    OFFSET 12.9547 3.2495 -3.26872
                    CHANNELS 6 Xposition Yposition Zposition Zrotation Xrotation Yrotation
                    JOINT l_low_arm
                    {
                      OFFSET 29.2081 0.0598081 0.137039
                      CHANNELS 6 Xposition Yposition Zposition Zrotation Xrotation Yrotation
                      JOINT l_hand
                      {
                        OFFSET 24.234 0.0496219 0.113701
                        CHANNELS 6 Xposition Yposition Zposition Zrotation Xrotation Yrotation
                        End Site
                        {
                          OFFSET 0.1 0 0
                        }
                      }
                    }
                  }
                }
                JOINT r_shoulder
                {
                  OFFSET -1.23299 -7.60729 7.53365
                  CHANNELS 6 Xposition Yposition Zposition Zrotation Xrotation Yrotation
                  JOINT r_up_arm
                  {
                    OFFSET -12.9547 3.2495 -3.26872
                    CHANNELS 6 Xposition Yposition Zposition Zrotation Xrotation Yrotation
                    JOINT r_low_arm
                    {
                      OFFSET -29.2081 0.0598081 0.137039
                      CHANNELS 6 Xposition Yposition Zposition Zrotation Xrotation Yrotation
                      JOINT r_hand
                      {
                        OFFSET -24.234 0.0496218 0.113702
                        CHANNELS 6 Xposition Yposition Zposition Zrotation Xrotation Yrotation
                        End Site
                        {
                          OFFSET -0.1 0 0
                        }
                      }
                    }
                  }
                }
              }
            }
          }
        }
      }
    }
  }
  JOINT l_up_leg
  {
    OFFSET 9.23673 -4.20556 2.0327
    CHANNELS 6 Xposition Yposition Zposition Zrotation Xrotation Yrotation
    JOINT l_low_leg
    {
      OFFSET -0.852353 -38.7721 -0.655187
      CHANNELS 6 Xposition Yposition Zposition Zrotation Xrotation Yrotation
      JOINT l_foot
      {
        OFFSET -2.32622 -40.4017 -6.04875
        CHANNELS 6 Xposition Yposition Zposition Zrotation Xrotation Yrotation
        JOINT l_toes
        {
          OFFSET 0.779096 -9.8844 12.4959
          CHANNELS 6 Xposition Yposition Zposition Zrotation Xrotation Yrotation
          End Site
          {
            OFFSET 0 0 0.1
          }
        }
      }
    }
  }
  JOINT r_up_leg
  {
    OFFSET -9.23673 -4.20556 2.0327
    CHANNELS 6 Xposition Yposition Zposition Zrotation Xrotation Yrotation
    JOINT r_low_leg
    {
      OFFSET 0.852353 -38.7721 -0.655187
      CHANNELS 6 Xposition Yposition Zposition Zrotation Xrotation Yrotation
      JOINT r_foot
      {
        OFFSET 2.32622 -40.4017 -6.04875
        CHANNELS 6 Xposition Yposition Zposition Zrotation Xrotation Yrotation
        JOINT r_toes
        {
          OFFSET -0.779096 -9.8844 12.4959
          CHANNELS 6 Xposition Yposition Zposition Zrotation Xrotation Yrotation
          End Site
          {
            OFFSET 0 0 0.1
          }
        }
      }
    }
  }
}
MOTION
Frames: 8
Frame Time: 0.016667
9.60468 93.0299 136.215 -0.836931 8.44087 2.65228 0 5.07867 -1.15138 0.0911354 -0.431555 -0.488602 0 5.61661 1.07143 0.269567 0.0370274 -0.129413 -1.02604e-17 5.98978 0.11501 0.239829 0.858119 -0.000232137 -1.10457e-17 6.50583 -0.443523 0.177283 1.90302 0.085632 -1.97295e-17 7.60548 -1.50593 0.116099 2.95513 -0.00605827 -2.53307e-17 9.49737 -0.914492 -0.0189071 3.30852 -0.310822 -2.90401e-17 10.5513 1.57691 0.0599535 0.726421 0.0484706 -1.29193e-17 4.78644 0.715339 0.397602 2.52218 2.72685 -1.8116e-17 4.82109 0.421791 -0.31982 -3.93467 1.29663 -2.00958e-17 4.83041 0.765062 -3.92308 -6.13482 1.37819 1.23299 -7.60731 7.53374 3.60579 1.69183 4.51192 12.9547 3.2495 -3.26872 -90.4203 25.3449 11.5515 29.2081 0.0598081 0.137039 5.80048 -1.4756 -29.1164 24.234 0.0496219 0.113701 2.77956 -15.281 -5.0583 -1.23299 -7.60729 7.53365 -9.46627 4.03562 -4.84202 -12.9547 3.2495 -3.26872 105.714 38.2715 -37.8565 -29.2081 0.0598081 0.137039 -9.26057 -4.3371 50.709 -24.234 0.0496218 0.113702 -1.61821 -50.3654 -3.15911 9.23673 -4.20556 2.0327 -0.222482 -11.9175 -16.8712 -0.852353 -38.7721 -0.655187 -0.329 1.22838 -0.0179145 -2.32622 -40.4017 -6.04875 1.33238 -0.861386 14.992 0.779096 -9.8844 12.4959 2.48481e-17 -7.95139e-16 1.2424e-17 -9.23673 -4.20556 2.0327 -4.34586 -14.836 7.63666 0.852353 -38.7721 -0.655187 1.40998 5.26288 0.0271177 2.32622 -40.4017 -6.04875 2.92915 -0.899401 -15.5438 -0.779096 -9.8844 12.4959 -5.96354e-16 -5.59082e-16 -1.27471e-14 
9.64856 93.0471 136.297 -0.840845 8.44383 2.81966 0 5.07867 -1.15138 0.0630892 -0.450885 -0.510866 0 5.61661 1.07143 0.249974 0.0197652 -0.156689 -1.02604e-17 5.98978 0.11501 0.228005 0.839067 -0.0277407 -1.10457e-17 6.50583 -0.443523 0.173378 1.87967 0.0584209 -1.97295e-17 7.60548 -1.50593 0.114541 2.9363 -0.0329655 -2.53307e-17 9.49737 -0.914492 -0.021208 3.29084 -0.338081 -2.90401e-17 10.5513 1.57691 0.0573825 0.730891 0.0505662 -1.29193e-17 4.78644 0.715339 0.418884 2.4185 2.83948 -1.8116e-17 4.82109 0.421791 -0.316331 -3.89367 1.35331 -2.00958e-17 4.83041 0.765062 -3.8273 -6.07256 1.39702 1.23299 -7.60731 7.53374 3.47461 1.69578 4.47942 12.9547 3.2495 -3.26872 -90.3359 25.2715 11.6503 29.2081 0.0598081 0.137039 5.85064 -1.50334 -29.3914 24.234 0.0496219 0.113701 2.78284 -15.3005 -4.96612 -1.23299 -7.60729 7.53365 -9.45294 4.06787 -4.78938 -12.9547 3.2495 -3.26872 106.131 38.4363 -38.1667 -29.2081 0.0598081 0.137039 -9.19724 -4.26136 50.2383 -24.234 0.0496218 0.113702 -1.04782 -51.3498 -2.26568 9.23673 -4.20556 2.0327 -0.284208 -11.8251 -16.938 -0.852353 -38.7721 -0.655187 -0.29511 1.1018 -0.0163942 -2.32622 -40.4017 -6.04875 1.29154 -0.759839 14.9881 0.779096 -9.8844 12.4959 2.48481e-17 -7.95139e-16 1.2424e-17 -9.23673 -4.20556 2.0327 -4.39817 -14.6516 7.53502 0.852353 -38.7721 -0.655187 1.36714 5.10335 0.028204 2.32622 -40.4017 -6.04875 2.94364 -0.873965 -15.5499 -0.779096 -9.8844 12.4959 -3.02871e-16 -5.77425e-16 -1.27562e-14 
9.70835 93.0868 136.385 -0.813211 8.45051 3.03361 0 5.07867 -1.15138 0.0440129 -0.520772 -0.541566 0 5.61661 1.07143 0.239175 -0.0320109 -0.187061 -1.02604e-17 5.98978 0.11501 0.224139 0.812735 -0.0566082 -1.10457e-17 6.50583 -0.443523 0.17471 1.89502 0.031558 -1.97295e-17 7.60548 -1.50593 0.116207 2.98066 -0.0601305 -2.53307e-17 9.49737 -0.914492 -0.0236603 3.3585 -0.367613 -2.90401e-17 10.5513 1.57691 0.0563746 0.732846 0.0532747 -1.29193e-17 4.78644 0.715339 0.439612 2.32489 2.92044 -1.8116e-17 4.82109 0.421791 -0.303634 -3.91191 1.39593 -2.00958e-17 4.83041 0.765062 -3.73532 -6.11089 1.41372 1.23299 -7.60731 7.53374 3.19311 1.6485 4.44614 12.9547 3.2495 -3.26872 -90.0925 25.2724 11.6305 29.2081 0.0598081 0.137039 5.89179 -1.52634 -29.6175 24.234 0.0496219 0.113701 2.75894 -15.4753 -4.91009 -1.23299 -7.60729 7.53365 -9.43904 4.07553 -4.76067 -12.9547 3.2495 -3.26872 106.625 38.7876 -38.966 -29.2081 0.0598081 0.137039 -9.2508 -4.32533 50.6361 -24.234 0.0496218 0.113702 -0.624445 -51.9797 -1.49216 9.23673 -4.20556 2.0327 -0.39506 -11.7357 -17.1006 -0.852353 -38.7721 -0.655187 -0.256023 0.955812 -0.014548 -2.32622 -40.4017 -6.04875 1.20705 -0.540539 14.9789 0.779096 -9.8844 12.4959 3.18331e-16 -7.85967e-16 3.25271e-18 -9.23673 -4.20556 2.0327 -4.51046 -14.4725 7.37504 0.852353 -38.7721 -0.655187 1.32916 4.96191 0.0290668 2.32622 -40.4017 -6.04875 3.00173 -0.793038 -15.5643 -0.779096 -9.8844 12.4959 -4.92267e-16 -5.65587e-16 -1.27503e-14 
9.79024 93.1618 136.467 -0.734197 8.36479 3.29836 0 5.07867 -1.15138 0.0224464 -0.618775 -0.57693 0 5.61661 1.07143 0.225866 -0.0978185 -0.219222 -1.02604e-17 5.98978 0.11501 0.218565 0.796862 -0.0865697 -1.10457e-17 6.50583 -0.443523 0.173686 1.96169 0.00438655 -1.97295e-17 7.60548 -1.50593 0.115539 3.0932 -0.0867752 -2.53307e-17 9.49737 -0.914492 -0.029593 3.51249 -0.397943 -2.90401e-17 10.5513 1.57691 0.0569232 0.731621 0.0553335 -1.29193e-17 4.78644 0.715339 0.44327 2.31729 2.93106 -1.8116e-17 4.82109 0.421791 -0.302066 -3.99262 1.40435 -2.00958e-17 4.83041 0.765062 -3.62607 -6.24745 1.43635 1.23299 -7.60731 7.53374 2.80285 1.54782 4.42003 12.9547 3.2495 -3.26872 -89.7218 25.3492 11.4638 29.2081 0.0598081 0.137039 5.91871 -1.5415 -29.7657 24.234 0.0496219 0.113701 2.73297 -15.7281 -4.87263 -1.23299 -7.60729 7.53365 -9.39018 4.02806 -4.75927 -12.9547 3.2495 -3.26872 107.019 39.186 -40.0197 -29.2081 0.0598081 0.137039 -9.41403 -4.52599 51.869 -24.234 0.0496218 0.113702 -0.514858 -52.3692 -1.16782 9.23673 -4.20556 2.0327 -0.576572 -11.588 -17.3604 -0.852353 -38.7721 -0.655187 -0.222366 0.830116 -0.0128787 -2.32622 -40.4017 -6.04875 1.05773 -0.139199 14.9632 0.779096 -9.8844 12.4959 1.28935e-16 -7.91886e-16 9.17133e-18 -9.23673 -4.20556 2.0327 -4.7031 -14.2213 7.13643 0.852353 -38.7721 -0.655187 1.30003 4.85338 0.0296649 2.32622 -40.4017 -6.04875 3.10594 -0.594744 -15.5857 -0.779096 -9.8844 12.4959 -3.02871e-16 -5.77425e-16 -1.27562e-14 
9.88158 93.2615 136.553 -0.634365 8.20668 3.61628 0 5.07867 -1.15138 -0.00831378 -0.741802 -0.612686 0 5.61661 1.07143 0.20405 -0.176425 -0.251299 -1.02604e-17 5.98978 0.11501 0.206405 0.788045 -0.116889 -1.10457e-17 6.50583 -0.443523 0.167498 2.06921 -0.0232805 -1.97295e-17 7.60548 -1.50593 0.111486 3.2594 -0.112514 -2.53307e-17 9.49737 -0.914492 -0.0380606 3.73179 -0.428677 -2.90401e-17 10.5513 1.57691 0.0590993 0.726931 0.0558273 -1.29193e-17 4.78644 0.715339 0.427967 2.42713 2.87218 -1.8116e-17 4.82109 0.421791 -0.300917 -4.11154 1.3786 -2.00958e-17 4.83041 0.765062 -3.52102 -6.46304 1.45622 1.23299 -7.60731 7.53374 2.39331 1.40082 4.43385 12.9547 3.2495 -3.26872 -89.2861 25.4909 11.1959 29.2081 0.0598081 0.137039 5.93047 -1.54815 -29.8305 24.234 0.0496219 0.113701 2.70051 -15.9523 -4.88343 -1.23299 -7.60729 7.53365 -9.30237 3.92217 -4.79282 -12.9547 3.2495 -3.26872 107.145 39.4484 -41.0526 -29.2081 0.0598081 0.137039 -9.64773 -4.8294 53.694 -24.234 0.0496218 0.113702 -0.770693 -52.3801 -1.39583 9.23673 -4.20556 2.0327 -0.793956 -11.4051 -17.6936 -0.852353 -38.7721 -0.655187 -0.201716 0.752999 -0.011818 -2.32622 -40.4017 -6.04875 0.894545 0.378072 14.9428 0.779096 -9.8844 12.4959 2.48481e-17 -7.95139e-16 1.2424e-17 -9.23673 -4.20556 2.0327 -4.92944 -13.8969 6.828 0.852353 -38.7721 -0.655187 1.27382 4.75571 0.0301558 2.32622 -40.4017 -6.04875 3.21956 -0.300883 -15.6105 -0.779096 -9.8844 12.4959 -1.98785e-16 -5.8393e-16 -1.27595e-14 
9.96031 93.3645 136.649 -0.533313 8.06334 3.90913 0 5.07867 -1.15138 -0.0362987 -0.873935 -0.640565 0 5.61661 1.07143 0.182576 -0.261168 -0.274515 -1.02604e-17 5.98978 0.11501 0.193232 0.779138 -0.13865 -1.10457e-17 6.50583 -0.443523 0.15902 2.18888 -0.0427642 -1.97295e-17 7.60548 -1.50593 0.105594 3.44132 -0.12947 -2.53307e-17 9.49737 -0.914492 -0.0467606 3.96888 -0.450471 -2.90401e-17 10.5513 1.57691 0.0624352 0.719937 0.0555944 -1.29193e-17 4.78644 0.715339 0.400629 2.60284 2.77684 -1.8116e-17 4.82109 0.421791 -0.300839 -4.22941 1.33409 -2.00958e-17 4.83041 0.765062 -3.48485 -6.71498 1.46705 1.23299 -7.60731 7.53374 2.02456 1.23963 4.47363 12.9547 3.2495 -3.26872 -88.8472 25.6736 10.9004 29.2081 0.0598081 0.137039 5.93409 -1.55021 -29.8505 24.234 0.0496219 0.113701 2.6482 -16.1077 -4.96471 -1.23299 -7.60729 7.53365 -9.1974 3.79355 -4.84741 -12.9547 3.2495 -3.26872 107.031 39.6021 -41.9606 -29.2081 0.0598081 0.137039 -9.89667 -5.17599 55.7268 -24.234 0.0496218 0.113702 -1.24948 -52.0879 -1.95415 9.23673 -4.20556 2.0327 -0.998424 -11.2478 -18.0243 -0.852353 -38.7721 -0.655187 -0.191475 0.714757 -0.0112816 -2.32622 -40.4017 -6.04875 0.746975 0.893446 14.9223 0.779096 -9.8844 12.4959 3.18331e-16 -7.85967e-16 3.25271e-18 -9.23673 -4.20556 2.0327 -5.14276 -13.5912 6.54128 0.852353 -38.7721 -0.655187 1.25022 4.66775 0.0305594 2.32622 -40.4017 -6.04875 3.34939 -0.00289265 -15.6379 -0.779096 -9.8844 12.4959 -4.92267e-16 -5.65587e-16 -1.27503e-14 
10.0251 93.4623 136.751 -0.390006 7.98128 4.15232 0 5.07867 -1.15138 -0.0652683 -1.00105 -0.65924 0 5.61661 1.07143 0.157985 -0.346866 -0.288588 -1.02604e-17 5.98978 0.11501 0.175811 0.762084 -0.15065 -1.10457e-17 6.50583 -0.443523 0.145217 2.29115 -0.0528356 -1.97295e-17 7.60548 -1.50593 0.0952039 3.60162 -0.136426 -2.53307e-17 9.49737 -0.914492 -0.0565435 4.17895 -0.459928 -2.90401e-17 10.5513 1.57691 0.0662354 0.713632 0.0562755 -1.29193e-17 4.78644 0.715339 0.367553 2.77345 2.66697 -1.8116e-17 4.82109 0.421791 -0.330839 -4.30337 1.28065 -2.00958e-17 4.83041 0.765062 -3.4884 -6.93137 1.4513 1.23299 -7.60731 7.53374 1.69767 1.09968 4.49551 12.9547 3.2495 -3.26872 -88.4278 25.9175 10.6495 29.2081 0.0598081 0.137039 5.93973 -1.55341 -29.8816 24.234 0.0496219 0.113701 2.58922 -16.2173 -5.06199 -1.23299 -7.60729 7.53365 -9.11885 3.68113 -4.8906 -12.9547 3.2495 -3.26872 106.907 39.8483 -42.8979 -29.2081 0.0598081 0.137039 -10.1271 -5.52158 57.7052 -24.234 0.0496218 0.113702 -1.72583 -52.1536 -2.46012 9.23673 -4.20556 2.0327 -1.23055 -11.1548 -18.3248 -0.852353 -38.7721 -0.655187 -0.188153 0.702353 -0.0111062 -2.32622 -40.4017 -6.04875 0.603746 1.40057 14.9024 0.779096 -9.8844 12.4959 1.28935e-16 -7.91886e-16 9.17133e-18 -9.23673 -4.20556 2.0327 -5.38752 -13.3522 6.29882 0.852353 -38.7721 -0.655187 1.23007 4.59264 0.0308752 2.32622 -40.4017 -6.04875 3.49863 0.230959 -15.6681 -0.779096 -9.8844 12.4959 -5.96354e-16 -5.59082e-16 -1.27471e-14 
10.0778 93.5451 136.801 -0.297836 7.89583 4.34723 0 5.07867 -1.15138 -0.0734183 -1.11311 -0.674847 0 5.61661 1.07143 0.151675 -0.421723 -0.298309 -1.02604e-17 5.98978 0.11501 0.172306 0.749599 -0.157774 -1.10457e-17 6.50583 -0.443523 0.140827 2.38713 -0.0582835 -1.97295e-17 7.60548 -1.50593 0.0902539 3.74856 -0.140599 -2.53307e-17 9.49737 -0.914492 -0.0636429 4.3691 -0.464897 -2.90401e-17 10.5513 1.57691 0.0704024 0.707206 0.0573613 -1.29193e-17 4.78644 0.715339 0.339864 2.9441 2.57502 -1.8116e-17 4.82109 0.421791 -0.380327 -4.36923 1.2349 -2.00958e-17 4.83041 0.765062 -3.50488 -7.08878 1.42434 1.23299 -7.60731 7.53374 1.41617 0.974671 4.50388 12.9547 3.2495 -3.26872 -88.0814 26.1993 10.4565 29.2081 0.0598081 0.137039 5.955 -1.56209 -29.9658 24.234 0.0496219 0.113701 2.58209 -16.2748 -5.07681 -1.23299 -7.60729 7.53365 -9.1086 3.57616 -4.93372 -12.9547 3.2495 -3.26872 106.793 40.1925 -43.8656 -29.2081 0.0598081 0.137039 -10.3427 -5.87016 59.6572 -24.234 0.0496218 0.113702 -2.10569 -52.7194 -2.84647 9.23673 -4.20556 2.0327 -1.3954 -11.1219 -18.6207 -0.852353 -38.7721 -0.655187 -0.203468 0.759541 -0.011909 -2.32622 -40.4017 -6.04875 0.511561 1.81249 14.8843 0.779096 -9.8844 12.4959 -2.68635e-16 -8.0431e-16 2.15954e-17 -9.23673 -4.20556 2.0327 -5.56168 -13.182 6.11071 0.852353 -38.7721 -0.655187 1.22114 4.55937 0.0310066 2.32622 -40.4017 -6.04875 3.62332 0.465953 -15.6941 -0.779096 -9.8844 12.4959 -5.96354e-16 -5.59082e-16 -1.27471e-14 
